<svg width="40" height="33" viewBox="0 0 40 33" xmlns="http://www.w3.org/2000/svg"><g transform="translate(1 1)" fill="none" fill-rule="evenodd"><path d="M10.148 4.75H2.003C.903 4.75 0 5.642 0 6.74v21.67C0 29.5.897 30.4 2.003 30.4h33.994c1.1 0 2.003-.892 2.003-1.99V6.74c0-1.092-.897-1.99-2.003-1.99H27.85l-1.09-2.882C26.37.838 25.164 0 24.064 0H13.936c-1.088 0-2.308.836-2.698 1.868l-1.09 2.882z" stroke="#28bab7" stroke-width="2"/><circle fill="#28bab7" cx="19" cy="17" r="9"/><path d="M20 16v-3.005c0-.54-.448-.995-1-.995-.556 0-1 .446-1 .995V16h-3.005c-.54 0-.995.448-.995 1 0 .556.446 1 .995 1H18v3.005c0 .54.448.995 1 .995.556 0 1-.446 1-.995V18h3.005c.54 0 .995-.448.995-1 0-.556-.446-1-.995-1H20z" fill="#FFF"/><rect fill="#28bab7" x="2" y="1" width="5" height="2" rx="2"/></g></svg>